PathFileType	4	(X/Y/Z)	Patient4_TMGait_0pt2_01_left_21.trc.trc
DataRate	CameraRate	NumFrames	NumMarkers	Units	OrigDataRate	OrigDataStartFrame	OrigNumFrames
45.751633986928	45.751633986928	4	33	mm	45.751633986928	36	       141
Frame#	Time	Sacral			L.Shoulder			Chest			R.Shoulder			Neck			R.ASIS			L.ASIS			R.Thigh.Superior			R.Thigh.Lateral			R.Thigh.Inferior			R.Patella			L.Thigh.Superior			L.Thigh.Lateral			L.Thigh.Inferior			L.Patella			L.Shank.Superior			L.Shank.Lateral			L.Shank.Inferior			R.Shank.Superior			R.Shank.Lateral			R.Shank.Inferior			R.Heel			R.Midfoot.Superior			R.Midfoot.Lateral			R.Toe			L.Heel			L.Midfoot.Lateral			L.Midfoot.Superior			L.Toe			L.Elbow			L.Wrist			R.Elbow			R.Wrist			
		X1	Y1	Z1	X2	Y2	Z2	X3	Y3	Z3	X4	Y4	Z4	X5	Y5	Z5	X6	Y6	Z6	X7	Y7	Z7	X8	Y8	Z8	X9	Y9	Z9	X10	Y10	Z10	X11	Y11	Z11	X12	Y12	Z12	X13	Y13	Z13	X14	Y14	Z14	X15	Y15	Z15	X16	Y16	Z16	X17	Y17	Z17	X18	Y18	Z18	X19	Y19	Z19	X20	Y20	Z20	X21	Y21	Z21	X22	Y22	Z22	X23	Y23	Z23	X24	Y24	Z24	X25	Y25	Z25	X26	Y26	Z26	X27	Y27	Z27	X28	Y28	Z28	X29	Y29	Z29	X30	Y30	Z30	X31	Y31	Z31	X32	Y32	Z32	X33	Y33	Z33	

36	49.055000000000	736.993918719578	1001.562455361777	539.209255491363	869.625349208255	1426.025688786541	331.346064577400	1002.586523145364	1360.301856739691	471.276134905276	951.498661822950	1434.692888873138	655.054544210723	879.450356692209	1489.722796575305	486.608502377476	977.187356506383	931.805842891269	627.815488174497	932.078101951523	957.269127620263	357.412561796268	968.110989633109	717.704141750243	597.968249219983	865.907015260884	623.032913957195	663.990569307992	920.516758997046	558.006894665164	580.032706483541	896.920929903008	470.323700018697	584.720207657655	1009.141725902282	763.786606717868	395.592604914556	949.812190841053	634.526819534714	321.576802106223	1044.838028735382	571.507765547216	386.513733339289	1057.035275874951	499.996625793994	388.969822150874	1034.490708497937	426.233442525053	375.451386694440	955.463411799458	310.024294021651	312.693897057234	1011.422824180024	197.048184049488	376.839682264480	848.725674703428	389.990206740853	594.534998837941	757.909704413869	306.159103769760	662.867794160510	770.491322699931	204.744878130468	597.264533185793	601.063855487743	60.680187154023	576.502160503405	777.560469036151	99.090613374012	605.658103957725	686.316533449278	45.948860948404	647.077941137547	892.833590133055	37.318623052467	629.991077335880	888.606401026192	38.783315751621	400.476317872057	968.235490536945	36.544762208846	325.474138506526	1049.618296267680	97.455181113210	358.450795568253	1179.030660474376	46.251399300612	338.008844301290	752.046062184309	1093.587734633252	237.599999059973	747.313619760639	833.365159104780	272.624127922325	1175.258002237998	1187.569400886455	753.641052352750	1413.918291248477	1253.036672182227	680.168849647395	
37	49.076857142857	737.788752804861	1001.762740501233	532.890394600288	871.944441870185	1426.230613496209	326.284449818304	1003.877274527911	1360.472332494684	467.170762625491	951.408070151350	1434.833218255926	650.592096897013	880.521404933941	1489.923048995622	481.748103556244	977.448233420241	931.949829960715	623.424518620903	934.371911921898	957.285571110440	352.684772983465	967.749318727839	717.762656281646	594.853615631926	864.767771174682	623.865507973405	660.876842496181	919.821146022875	557.962667596191	577.830988276175	896.016513429380	470.043149799188	583.067490106035	1011.096841327146	763.842237640504	392.105342684070	952.146103447092	634.150648992501	318.524557096673	1046.931421743937	571.296855155390	384.122041885935	1059.090370453391	499.221354875770	387.035635050175	1035.486379836777	425.259222690127	373.971513466804	955.201891839028	309.799514504074	311.583459186938	1009.037840326708	196.420061267686	376.477314787670	846.958263134610	390.206669030913	593.083794273642	755.133812003659	307.556787602666	661.563054325414	767.316682035107	205.493454961221	596.856353499988	596.999607003979	62.352230905804	576.565421070140	773.943719925056	99.601382025648	605.995236870821	682.225469583374	46.825648427848	647.097275116767	888.681225417436	37.203726835729	630.027238103066	884.386204162712	38.783951989093	400.496611462606	963.992486621784	36.629733451957	325.485121328191	1045.403134528853	97.467480544935	358.548130457114	1174.849337517880	46.056326381773	337.985511331383	757.454217605128	1093.409523089819	228.920722634219	756.385854031325	832.935452143334	262.197685963236	1173.740917824938	1186.028621069250	750.127257706974	1414.500866539333	1247.317513923389	679.072009736594	
38	49.098714285714	738.600443173815	1001.988895032757	526.464797060857	874.356437732434	1426.470475030087	321.146766378637	1005.135394447162	1360.708653818670	463.082441157218	951.182835863081	1435.069379737087	646.110945957127	881.593514303471	1490.181015897564	476.810686447599	977.645176248428	932.175117209748	618.989121669518	936.655644061822	957.298908079467	347.882034433509	967.556361450911	717.925381316137	591.693188223112	863.924200001211	624.691804992956	657.712824372585	919.552294641672	557.949158297976	575.637557513503	895.668873938250	469.624775650282	581.531174448313	1012.816631079368	763.718400599533	388.278658368310	953.858620790982	633.695417581574	315.335618079169	1048.441408694895	570.941542114455	381.413864059070	1060.453383455690	498.409986107835	384.811163508002	1035.890045320898	424.268544871176	372.259245669801	954.392379735680	309.454959778923	310.392534510112	1006.408231386307	195.803579189704	375.977990163702	845.566737469454	390.382708668103	591.676068969654	752.624720504333	309.021413123118	660.234313260852	764.356596376183	206.277090711667	596.484035343058	592.959977910916	64.169799803441	576.657337568485	770.419159869638	100.056651669926	606.312962993900	678.157330797234	47.725668781764	647.121622558152	884.572259966586	37.117208244958	630.052778009753	880.118022341399	38.767233556348	400.528831965604	959.700645798107	36.665979193688	325.494225872682	1041.145342299199	97.441061362574	358.603519935679	1170.622688232010	45.821580205655	337.962432171708	763.393831300564	1093.103328391500	220.238913793578	766.231174739284	832.432044393529	251.727348429428	1171.328091939984	1183.756104470909	746.900220997591	1414.445300181821	1239.876558465623	678.735521919387	
39	49.120571428571	739.441139221665	1002.264819129734	519.945706164360	876.832222231717	1426.780932233547	315.949471769404	1006.335554714397	1361.060452624211	459.025920387332	950.791950633064	1435.448637717763	641.619811808599	882.628898994110	1490.532372973069	471.808853340876	977.781422407557	932.516977379502	614.504869330116	938.932652317300	957.368418163892	343.017330098824	967.639280003540	718.222581094033	588.475678733847	863.541900786229	625.493360768134	654.500946173521	919.921304301192	557.973724872207	573.453549916121	896.105852279274	469.042197169590	580.144576851499	1014.299412808676	763.437681431692	384.105591127524	954.947827379415	633.199242921902	311.992530242312	1049.325392454549	570.455898211129	378.402567761957	1061.074913306476	497.594019196081	382.315203197436	1035.669854113770	423.298217915099	370.322255735910	953.042496615139	309.012317189619	309.096387657471	1003.530810688281	195.215317922192	375.352929126076	844.743149875578	390.513623496257	590.335494006473	750.538653001515	310.601009663592	658.889413680152	761.731983452376	207.135526678620	596.164011361576	589.001870794918	66.282029439535	576.789329684445	767.041812427997	100.455079197114	606.615244658204	674.138855904660	48.726705647871	647.157253837317	880.499464420097	37.050979018634	630.067695401882	875.805132799733	38.738580839396	400.562675566256	955.364978622981	36.660524010511	325.493357375221	1036.852796737460	97.374565096552	358.616146904262	1166.356443465954	45.546665587093	337.937588853097	769.941495341570	1092.664349670012	211.635853125109	776.922051429260	831.856213000489	241.276085601832	1167.874039249303	1180.729372206481	743.948914713971	1413.526199269673	1230.500359102022	679.095754965836	
